<?xml version="1.0" encoding="UTF-8"?><svg id="Capa_1" xmlns="http://www.w3.org/2000/svg" viewBox="0 0 1093.75 165.73"><defs><style>.cls-1{fill:#00bfff;}.cls-2{fill:#54565a;}</style></defs><path class="cls-2" d="M313.82,20.18c27.04,0,39.04,8.81,39.04,28.41,0,4.25-.61,9.11-6.08,35.09-6.38,29.62-22.63,42.83-55.59,42.83h-71.09c-3.04,0-4.1-1.52-3.49-4.56l20.51-97.21c.61-3.04,2.58-4.56,5.62-4.56h71.09ZM243.8,103.42c-.3,1.37,0,1.97,1.37,1.97h49.82c17.62,0,25.21-6.08,29.01-23.69,4.4-20.66,4.86-24,4.86-26.89,0-10.18-5.92-13.52-20.2-13.52h-49.98c-1.21,0-1.82.61-2.12,2.13l-12.76,60Z"/><path class="cls-2" d="M441.4,43.12c22.18,0,30.83,5.77,30.83,19.75,0,3.19-.76,6.84-10.02,51.49-1.98,9.87-4.86,12.15-13.67,12.15h-72.3c-14.43,0-19.74-4.25-19.74-13.67,0-2.28.3-4.86.91-7.9l1.52-7.29c2.73-12.76,9.72-19.9,27.8-19.9h61.67c1.06-5.01,1.37-6.84,1.37-8.36,0-5.92-3.65-8.05-14.43-8.05h-63.49c-1.82,0-2.58-.76-2.12-2.73l2.73-12.76c.45-1.82,1.52-2.73,3.34-2.73h65.62ZM442.77,104.63l2.73-13.37h-55.59c-6.08,0-9.11,2.73-10.02,7.44-.76,4.41-.91,5.32-.91,6.23,0,3.34,1.82,4.86,6.99,4.86h51.19c3.19,0,4.86-1.52,5.62-5.16Z"/><path class="cls-2" d="M572.03,43.12c1.82,0,2.43.91,2.13,2.73l-2.73,12.76c-.46,1.98-1.52,2.73-3.34,2.73h-40.4c-12.91,0-17.32,4.25-20.05,16.71l-9.72,45.11c-.45,2.28-1.67,3.34-3.95,3.34h-14.89c-2.28,0-3.19-1.06-2.73-3.34l10.48-49.21c4.71-22.02,15.34-30.83,42.68-30.83h42.53Z"/><path class="cls-2" d="M654.34,43.12c22.18,0,30.83,5.77,30.83,19.75,0,3.19-.76,6.84-10.02,51.49-1.98,9.87-4.86,12.15-13.67,12.15h-72.3c-14.43,0-19.74-4.25-19.74-13.67,0-2.28.3-4.86.91-7.9l1.52-7.29c2.73-12.76,9.72-19.9,27.8-19.9h61.67c1.06-5.01,1.37-6.84,1.37-8.36,0-5.92-3.65-8.05-14.43-8.05h-63.49c-1.83,0-2.58-.76-2.13-2.73l2.73-12.76c.45-1.82,1.52-2.73,3.34-2.73h65.62ZM655.71,104.63l2.73-13.37h-55.59c-6.08,0-9.11,2.73-10.02,7.44-.76,4.41-.91,5.32-.91,6.23,0,3.34,1.82,4.86,6.99,4.86h51.19c3.19,0,4.86-1.52,5.62-5.16Z"/><path class="cls-1" d="M97.06,0C43.54,0,0,32.86,0,73.26s43.54,73.26,97.06,73.26,97.06-32.86,97.06-73.26S150.58,0,97.06,0ZM180.87,73.26c0,34.24-37.6,62.1-83.81,62.1S13.25,107.5,13.25,73.26,50.85,11.17,97.06,11.17s83.81,27.86,83.81,62.1Z"/><path class="cls-1" d="M114.2,78.41l-.13.27c-8.36,17.25-16.15,33.33-19.46,40.13l-.99,2.03,12.21-.03.38-.79c4.08-8.39,11.18-23.12,18.7-38.71l.21-.44c7.92-16.42,16.89-35.01,22.65-46.86-2.89-2.06-6.01-3.94-9.32-5.63l-.07.14c-5.33,10.97-15.08,31.1-24.19,49.89Z"/><path class="cls-1" d="M97.73,56.47c-7.86,16.11-15.84,32.48-19.72,40.45l-.98,2.02h13.15l.39-.79c5.28-10.83,14.57-29.94,22.82-46.92l13.46-27.68c-3.72-1.23-7.59-2.24-11.6-3.01l-.08.16c-3.84,7.9-10.59,21.73-17.44,35.77Z"/><path class="cls-1" d="M74.12,76.45c3.69-7.57,8.71-17.88,13.75-28.2,5.01-10.27,10.03-20.55,13.73-28.17l.55-1.13c-1.75-.09-3.51-.14-5.29-.14-2.57,0-5.11.1-7.61.29l-12.47,25.58c-5.69,11.67-11.3,23.15-14.88,30.53l-.98,2.02h12.82l.39-.79Z"/><path class="cls-1" d="M58.08,54.46c3.85-7.91,8.44-17.27,12.88-26.32l3.28-6.69c-5.43,1.3-10.59,3.05-15.38,5.2l-1.24,2.53c-4.2,8.57-8.55,17.42-11.76,24.03l-.98,2.02h12.82l.38-.79Z"/><path class="cls-2" d="M743.83,76.63c1.82,0,2.73.91,2.28,2.73l-2.43,10.91c-.3,1.82-1.36,2.73-3.33,2.73h-45.47c-1.82,0-2.58-.91-2.12-2.73l2.27-10.91c.45-1.82,1.36-2.73,3.33-2.73h45.47Z"/><path class="cls-2" d="M790.5,20.12c2.28,0,3.18,1.06,2.73,3.34l-12.88,60.47c-.76,3.79-1.21,6.97-1.21,9.55,0,8.64,4.7,11.22,16.97,11.22h61.38c2.28,0,3.18,1.06,2.73,3.33l-3.18,14.85c-.46,2.28-1.82,3.34-4.09,3.34h-62.29c-24.71,0-35.77-7.13-35.77-25.31,0-4.25.6-9.1,1.82-14.7l13.33-62.75c.46-2.28,1.82-3.34,4.09-3.34h16.37Z"/><path class="cls-2" d="M980.24,43c2.12,0,2.58,1.82,1.21,3.79l-79.87,103.77c-5.46,7.12-13.19,10.3-26.22,10.3h-10.61c-1.82,0-2.43-.91-2.12-2.73l2.57-12.43c.46-1.82,1.52-2.73,3.34-2.73h8.94c4.09,0,6.52-1.06,8.49-3.49l11.37-15.56c-5-.45-7.28-2.12-8.49-6.51l-25.92-70.63c-.61-1.97.61-3.79,2.73-3.79h17.28c1.97,0,2.88.61,3.33,2.12l21.07,58.5c.76,2.28,1.21,3.18,3.18,3.49l48.65-61.99c1.06-1.51,2.12-2.12,4.09-2.12h16.97Z"/><path class="cls-2" d="M1062.83,43c22.13,0,30.92,5.91,30.92,19.85,0,3.18-.45,6.82-5.91,32.74-4.55,21.98-15.46,30.62-42.74,30.62h-42.89c-22.13,0-30.77-5.61-30.77-19.55,0-3.18.45-6.97,5.91-32.89,4.55-21.98,15.31-30.77,42.59-30.77h42.89ZM994.02,99.53c0,6.82,3.79,8.94,14.1,8.94h38.65c13.03,0,17.43-4.09,20.15-16.67,3.79-17.58,4.09-20.15,4.09-22.28,0-6.67-3.79-8.64-14.1-8.64h-38.65c-12.88,0-17.28,3.94-20,16.52-3.79,17.43-4.25,20.01-4.25,22.13Z"/><path class="cls-2" d="M229.88,143.33c.36,0,.49.17.41.54l-.46,2.31c-.1.36-.32.54-.68.54h-10.56c-2.48,0-3.45.66-4.04,3.79h13.65c.36,0,.51.17.44.54l-.41,1.92c-.07.37-.27.54-.63.54h-13.67l-1.34,6.32c-.07.37-.29.54-.66.54h-2.63c-.36,0-.51-.17-.44-.54l2.14-10.07c1-4.67,3.26-6.42,8.17-6.42h10.7Z"/><path class="cls-2" d="M246.96,147c.29,0,.39.15.34.44l-.44,2.04c-.07.32-.24.44-.54.44h-6.47c-2.07,0-2.77.68-3.21,2.68l-1.56,7.22c-.07.37-.27.54-.63.54h-2.38c-.37,0-.51-.17-.44-.54l1.68-7.88c.75-3.53,2.46-4.94,6.83-4.94h6.81Z"/><path class="cls-2" d="M264.13,147c2.6,0,3.6.63,3.6,2.33,0,.46-.07,1.02-.73,3.96-.22,1.05-.71,1.39-1.65,1.39h-12.28c-.19.9-.22,1.19-.22,1.43,0,.95.58,1.31,2.29,1.31h10.17c.29,0,.39.15.34.44l-.44,2.04c-.07.29-.24.44-.54.44h-10.48c-3.55,0-4.96-.92-4.96-3.16,0-.51.07-1.09.95-5.25.75-3.53,2.46-4.94,6.83-4.94h7.13ZM253.53,152.52h9.83c.29,0,.46-.12.51-.41.24-1.26.29-1.46.29-1.63,0-.58-.34-.78-1.24-.78h-6.13c-2.07,0-2.8.63-3.11,2.17l-.15.66Z"/><path class="cls-2" d="M285.76,147c2.6,0,3.6.63,3.6,2.33,0,.46-.07,1.02-.73,3.96-.22,1.05-.71,1.39-1.65,1.39h-12.28c-.19.9-.22,1.19-.22,1.43,0,.95.58,1.31,2.29,1.31h10.17c.29,0,.39.15.34.44l-.44,2.04c-.07.29-.24.44-.54.44h-10.48c-3.55,0-4.96-.92-4.96-3.16,0-.51.07-1.09.95-5.25.75-3.53,2.46-4.94,6.83-4.94h7.13ZM275.15,152.52h9.83c.29,0,.46-.12.51-.41.24-1.26.29-1.46.29-1.63,0-.58-.34-.78-1.24-.78h-6.13c-2.07,0-2.8.63-3.11,2.17l-.15.66Z"/><path class="cls-2" d="M308.55,147c.92,0,1.44.34,1.44,1.09,0,.17-.02.27-.05.44l-.41,1.8c-.24,1.07-.51,1.36-1.44,1.73l-11.82,4.74c-.15.05-.32.34-.32.54,0,.1.05.15.19.15h11.31c.29,0,.41.15.34.44l-.41,2c-.07.29-.24.44-.54.44h-13.45c-1.17,0-1.41-.44-1.41-1.14,0-.17.05-.54.44-2.16.24-1,.44-1.34,1.46-1.75l11.82-4.74c.17-.05.29-.29.29-.51,0-.1-.02-.17-.17-.17h-11.33c-.29,0-.39-.15-.34-.44l.44-1.99c.05-.29.22-.44.51-.44h13.45Z"/><path class="cls-2" d="M327.65,147c2.6,0,3.6.63,3.6,2.33,0,.46-.07,1.02-.73,3.96-.22,1.05-.71,1.39-1.65,1.39h-12.28c-.19.9-.22,1.19-.22,1.43,0,.95.58,1.31,2.29,1.31h10.17c.29,0,.39.15.34.44l-.44,2.04c-.07.29-.24.44-.54.44h-10.48c-3.55,0-4.96-.92-4.96-3.16,0-.51.07-1.09.95-5.25.75-3.53,2.46-4.94,6.83-4.94h7.13ZM317.04,152.52h9.83c.29,0,.46-.12.51-.41.24-1.26.29-1.46.29-1.63,0-.58-.34-.78-1.24-.78h-6.13c-2.07,0-2.8.63-3.11,2.17l-.15.66Z"/><path class="cls-2" d="M360.46,143.33c4.33,0,6.25,1.41,6.25,4.55,0,.68-.1,1.46-.97,5.62-1.02,4.74-3.62,6.86-8.9,6.86h-11.38c-.49,0-.66-.24-.56-.73l3.28-15.57c.1-.49.41-.73.9-.73h11.38ZM349.25,156.66c-.05.22,0,.32.22.32h7.98c2.82,0,4.04-.97,4.65-3.79.71-3.31.78-3.84.78-4.31,0-1.63-.95-2.16-3.23-2.16h-8c-.19,0-.29.1-.34.34l-2.04,9.61Z"/><path class="cls-2" d="M385.05,147c.29,0,.39.15.34.44l-.44,2.04c-.07.32-.24.44-.54.44h-6.47c-2.07,0-2.77.68-3.21,2.68l-1.56,7.22c-.07.37-.27.54-.63.54h-2.38c-.37,0-.51-.17-.44-.54l1.68-7.88c.75-3.53,2.46-4.94,6.83-4.94h6.81Z"/><path class="cls-2" d="M407.43,147c.34,0,.41.29.19.61l-12.82,16.47c-.88,1.14-2.12,1.65-4.21,1.65h-1.7c-.29,0-.39-.15-.34-.44l.41-1.99c.07-.29.24-.44.54-.44h1.44c.66,0,1.05-.17,1.36-.56l1.82-2.31c-.8-.07-1.17-.34-1.36-1.05l-4.16-11.33c-.1-.32.1-.61.44-.61h2.77c.32,0,.46.1.54.34l3.38,9.39c.12.37.19.51.51.56l7.81-9.95c.17-.24.34-.34.66-.34h2.72Z"/><path class="cls-2" d="M414.9,147c.36,0,.49.2.41.56l-2.6,12.26c-.07.37-.29.54-.66.54h-2.38c-.36,0-.51-.17-.44-.54l2.6-12.26c.07-.36.32-.56.68-.56h2.38ZM415.95,142.06c.36,0,.49.17.41.54l-.49,2.31c-.1.36-.29.56-.66.56h-2.38c-.37,0-.51-.19-.44-.56l.51-2.31c.07-.36.29-.54.66-.54h2.38Z"/><path class="cls-2" d="M433.66,147c3.53,0,4.94.92,4.94,3.14,0,.54-.07,1.12-.22,1.8l-1.65,7.88c-.07.37-.29.54-.66.54h-2.38c-.36,0-.51-.17-.44-.54l1.51-7.05c.12-.56.19-1,.19-1.36,0-1-.56-1.31-2.14-1.31h-6.45c-2.09,0-2.8.66-3.23,2.67l-1.51,7.05c-.07.37-.27.54-.63.54h-2.38c-.37,0-.51-.17-.44-.54l1.68-7.88c.75-3.53,2.46-4.94,6.83-4.94h6.98Z"/><path class="cls-2" d="M457.28,147c3.55,0,4.96.92,4.96,3.16,0,.51-.07,1.09-2.09,10.6-.75,3.55-2.46,4.96-6.86,4.96h-11.46c-.29,0-.41-.15-.34-.44l.44-2.04c.05-.29.22-.44.54-.44h11.12c2.09,0,2.92-.68,3.36-3.33h-9.12c-3.16,0-4.94-.85-4.94-2.8,0-.83.32-2.97.75-4.72.92-3.65,2.33-4.96,6.83-4.96h6.81ZM446.43,155.42c0,1,.58,1.36,2.31,1.36h8.78c1.05-4.94,1.09-5.28,1.09-5.57,0-1-.58-1.34-2.29-1.34h-6.13c-2.09,0-2.8.66-3.14,2.29-.58,2.7-.63,2.99-.63,3.26Z"/><path class="cls-2" d="M497.24,143.33c.36,0,.51.17.44.54l-.49,2.31c-.07.36-.29.54-.66.54h-10.65c-2.46,0-3.38.78-3.96,3.55h13.72c.36,0,.51.17.44.54l-.41,1.92c-.07.37-.29.54-.66.54h-13.74c-.19,1.02-.27,1.53-.27,1.95,0,1.36.75,1.78,2.72,1.78h10.65c.34,0,.49.17.41.54l-.49,2.31c-.07.37-.29.54-.66.54h-10.7c-3.99,0-5.72-1.14-5.72-4.09,0-.68.1-1.46,1.14-6.52.97-4.67,3.26-6.42,8.17-6.42h10.7Z"/><path class="cls-2" d="M514.59,147c3.55,0,4.96.92,4.96,3.16,0,.51-.07,1.12-.22,1.78l-2.82,13.26c-.07.37-.29.54-.66.54h-2.38c-.37,0-.49-.17-.41-.54l1.02-4.84h-9.15c-3.55,0-4.94-.9-4.94-3.14,0-.51.07-1.12.95-5.28.75-3.53,2.46-4.94,6.83-4.94h6.81ZM503.64,156c0,1.09.63,1.43,2.26,1.43h8.8l1.02-4.84c.1-.49.17-.9.17-1.24,0-1.09-.61-1.44-2.26-1.44h-6.13c-2.07,0-2.8.68-3.23,2.68-.56,2.65-.63,3.06-.63,3.41Z"/><path class="cls-2" d="M528.67,147c.37,0,.51.2.44.56l-1.51,7.03c-.12.56-.17,1-.17,1.36,0,1,.51,1.31,2.12,1.31h6.25c2.07,0,2.8-.66,3.24-2.68l1.51-7.03c.07-.36.29-.56.66-.56h2.38c.37,0,.51.2.41.56l-1.65,7.88c-.75,3.53-2.48,4.91-6.86,4.91h-6.79c-3.55,0-4.94-.92-4.94-3.14,0-.51.07-1.09.22-1.78l1.68-7.88c.07-.36.27-.56.63-.56h2.38Z"/><path class="cls-2" d="M552.51,147c.37,0,.49.2.41.56l-2.6,12.26c-.07.37-.29.54-.66.54h-2.38c-.37,0-.51-.17-.44-.54l2.6-12.26c.07-.36.32-.56.68-.56h2.38ZM553.56,142.06c.37,0,.49.17.41.54l-.49,2.31c-.1.36-.29.56-.66.56h-2.38c-.36,0-.51-.19-.44-.56l.51-2.31c.07-.36.29-.54.66-.54h2.38Z"/><path class="cls-2" d="M571.1,147c3.55,0,4.94.92,4.94,3.16,0,.51-.07,1.09-.95,5.28-.73,3.53-2.46,4.91-6.83,4.91h-9.14l-1.02,4.84c-.07.37-.27.54-.63.54h-2.38c-.36,0-.51-.17-.44-.54l2.82-13.26c.75-3.53,2.46-4.94,6.83-4.94h6.81ZM559.74,157.43h8.78c2.09,0,2.8-.66,3.24-2.67.56-2.68.63-3.09.63-3.43,0-1.07-.61-1.41-2.26-1.41h-6.13c-2.07,0-2.77.68-3.21,2.68l-1.05,4.84Z"/><path class="cls-2" d="M600.31,147c3.55,0,4.96.92,4.96,3.16,0,.51-.07,1.12-.22,1.78l-1.68,7.88c-.07.37-.29.54-.66.54h-2.38c-.37,0-.51-.17-.44-.54l1.51-7.05c.12-.54.19-1,.19-1.36,0-1-.56-1.31-2.14-1.31h-4.28l-2.07,9.73c-.07.37-.29.54-.66.54h-2.38c-.36,0-.49-.17-.41-.54l2.07-9.73h-4.13c-2.09,0-2.8.68-3.24,2.67l-1.51,7.05c-.07.37-.27.54-.63.54h-2.38c-.37,0-.51-.17-.44-.54l1.68-7.88c.75-3.53,2.46-4.94,6.83-4.94h12.4Z"/><path class="cls-2" d="M623.91,147c2.6,0,3.6.63,3.6,2.33,0,.46-.07,1.02-.73,3.96-.22,1.05-.71,1.39-1.65,1.39h-12.28c-.2.9-.22,1.19-.22,1.43,0,.95.58,1.31,2.29,1.31h10.17c.29,0,.39.15.34.44l-.44,2.04c-.07.29-.24.44-.54.44h-10.48c-3.55,0-4.96-.92-4.96-3.16,0-.51.07-1.09.95-5.25.75-3.53,2.46-4.94,6.83-4.94h7.13ZM613.3,152.52h9.83c.29,0,.46-.12.51-.41.24-1.26.29-1.46.29-1.63,0-.58-.34-.78-1.24-.78h-6.13c-2.07,0-2.8.63-3.11,2.17l-.15.66Z"/><path class="cls-2" d="M645.88,147c3.53,0,4.94.92,4.94,3.14,0,.54-.07,1.12-.22,1.8l-1.65,7.88c-.07.37-.29.54-.66.54h-2.38c-.37,0-.51-.17-.44-.54l1.51-7.05c.12-.56.19-1,.19-1.36,0-1-.56-1.31-2.14-1.31h-6.45c-2.09,0-2.8.66-3.24,2.67l-1.51,7.05c-.07.37-.27.54-.63.54h-2.38c-.37,0-.51-.17-.44-.54l1.68-7.88c.75-3.53,2.46-4.94,6.83-4.94h6.98Z"/><path class="cls-2" d="M658.77,147l.68-3.21c.05-.37.27-.54.63-.54h2.38c.37,0,.51.17.44.54l-.68,3.21h4.26c.29,0,.41.15.34.44l-.41,1.99c-.05.29-.24.44-.54.44h-4.26l-1.19,5.64c-.07.32-.1.58-.1.83,0,.8.44,1.14,1.7,1.14h2.36c.32,0,.41.15.36.44l-.41,2c-.07.29-.24.44-.56.44h-2.94c-3.04,0-4.13-.85-4.13-2.85,0-.56.07-1.24.24-1.99l1.19-5.64h-2.31c-.29,0-.41-.15-.34-.44l.41-1.99c.07-.29.24-.44.54-.44h2.33Z"/></svg>