<svg id="Layer_1" height="512" viewBox="0 0 512 512" width="512" xmlns="http://www.w3.org/2000/svg"><g><path d="m160.83 319.21v91.62h-.01c-13.81 0-13.81-17.45-27.63-17.45-13.81 0-13.81 17.45-27.62 17.45-13.82 0-13.36-17.44-27.17-17.45 3.13-30.03 22.3-55.29 48.8-67.06 2.43-1.08 4.92-2.05 7.46-2.89 2.67-.89 5.4-1.65 8.17-2.26 5.8-1.28 11.82-1.96 18-1.96z" fill="#ef4544"/><path d="m243.27 393.38c-13.81.01-13.36 17.45-27.18 17.45s-13.82-17.45-27.63-17.45c-13.82 0-13.82 17.44-27.63 17.45v-91.62c6.19 0 12.22.68 18.02 1.96 2.78.62 5.5 1.37 8.16 2.26 2.54.84 5.04 1.81 7.46 2.89 26.5 11.77 45.67 37.03 48.8 67.06z" fill="#cc2f42"/><path d="m263.176 87.017h11.254v11.254c0 4.418 3.582 8 8 8s8-3.582 8-8v-11.254h11.254c4.418 0 8-3.582 8-8s-3.582-8-8-8h-11.254v-11.254c0-4.418-3.582-8-8-8s-8 3.582-8 8v11.254h-11.254c-4.418 0-8 3.582-8 8s3.582 8 8 8z" fill="#38a9dd"/><path d="m160.83 116.32v54.49c-4.32-.11-7.78-3.64-7.78-7.99v-11.26h-11.26c-4.41 0-8-3.58-8-8 0-4.41 3.59-8 8-8h11.26v-11.25c0-4.35 3.46-7.88 7.78-7.99z" fill="#4fbaea"/><path d="m188.3 143.56c0 4.42-3.58 8-8 8h-11.25v11.26c0 4.42-3.58 8-8 8-.07 0-.15 0-.22-.01v-54.49c.07-.01.15-.01.22-.01 4.42 0 8 3.58 8 8v11.25h11.25c4.42 0 8 3.59 8 8z" fill="#38a9dd"/><path d="m243.73 402.1c0 45.79-37.11 82.9-82.9 82.9v-74.17c13.81-.01 13.81-17.45 27.63-17.45 13.81 0 13.81 17.45 27.63 17.45s13.37-17.44 27.18-17.45c.31 2.87.46 5.78.46 8.72z" fill="#b8e5f8"/><path d="m160.83 410.83v74.17c-45.78 0-82.89-37.11-82.89-82.9 0-2.94.15-5.85.46-8.72 13.81.01 13.35 17.45 27.17 17.45 13.81 0 13.81-17.45 27.62-17.45 13.82 0 13.82 17.45 27.63 17.45z" fill="#daf1fa"/><path d="m379.95 324.22v74.17c-45.78 0-82.9-37.11-82.9-82.89 0-2.95.15-5.86.46-8.73 13.81 0 13.36 17.45 27.17 17.45 13.82 0 13.82-17.45 27.63-17.45s13.81 17.45 27.63 17.45z" fill="#b8e5f8"/><path d="m462.85 315.5c0 45.78-37.12 82.89-82.9 82.89v-74.17c13.81-.01 13.81-17.45 27.62-17.45 13.82 0 13.82 17.45 27.64 17.45s13.36-17.45 27.18-17.45c.31 2.87.46 5.78.46 8.73z" fill="#daf1fa"/><path d="m462.39 306.77c-13.82 0-13.36 17.45-27.18 17.45s-13.82-17.45-27.64-17.45c-13.81 0-13.81 17.44-27.62 17.45v-91.62c6.16 0 12.17.67 17.95 1.95 5.5 1.21 10.79 2.97 15.82 5.22 26.42 11.8 45.53 37.02 48.67 67z" fill="#ef4544"/><path d="m379.95 232.6v91.62h-.01c-13.82 0-13.82-17.45-27.63-17.45s-13.81 17.45-27.63 17.45c-13.81 0-13.36-17.45-27.17-17.45 3.14-29.98 22.25-55.21 48.68-67.01 5.03-2.24 10.33-4 15.83-5.21 5.77-1.28 11.77-1.95 17.93-1.95z" fill="#cc2f42"/><path d="m454.14 176.29 2.64 25.22-23.17-10.31-23.17 10.31 2.64-25.22-16.96-18.86 24.8-5.28 8.69-15.03c1.17.69 2.54 1.08 4 1.08s2.83-.39 4-1.08l8.69 15.03 24.8 5.28z" fill="#fee156"/><path d="m267.53 290.28 2.64 25.22-23.17-10.31-23.17 10.31 2.64-25.22-16.96-18.86 24.8-5.28 8.69-15.03c1.17.69 2.54 1.08 4 1.08s2.83-.39 4-1.08l8.69 15.03 24.8 5.28z" fill="#f2aa36"/><path d="m98.92 290.28 2.64 25.22-23.17-10.31-23.17 10.31 2.64-25.22-16.96-18.86 24.8-5.28 8.69-15.03c1.17.69 2.54 1.08 4 1.08s2.83-.39 4-1.08l8.69 15.03 24.8 5.28z" fill="#fee156"/><path d="m160.83 219.13v86.11c-1.86 0-3.72.28-5.49.85-6.69 2.12-11.58 8.13-12.51 15.08-2.77.61-5.5 1.37-8.17 2.26-2.54.84-5.03 1.81-7.46 2.89-.36-.91-.55-1.9-.54-2.94.09-14.98 9.67-28.06 23.84-32.55.771-.24 1.55-.46 2.33-.64v-55.3c-22.32-1.44-44.58-5.4-66.44-11.88v21.18c0 2.95-1.61 5.54-4 6.92-1.17.69-2.54 1.08-4 1.08s-2.83-.39-4-1.08c-2.39-1.38-4-3.97-4-6.92v-26.41c-.87-.31-1.74-.62-2.61-.94-4.14-1.53-6.27-6.12-4.75-10.27s6.12-6.27 10.27-4.75c2.61.96 5.22 1.88 7.84 2.75 26.34 8.83 53.14 13.57 79.69 14.56z" fill="#00935c"/><path d="m379.95 129.12v89.95c-1.86 0-3.72.28-5.49.85-6.55 2.07-11.37 7.87-12.44 14.63-5.5 1.21-10.8 2.97-15.83 5.21-.28-.8-.42-1.66-.41-2.55.08-14.98 9.67-28.06 23.83-32.55.78-.24 1.56-.46 2.34-.64v-44.56c-21.76 19.29-46.46 35.49-73.58 48.04-14.16 6.55-28.65 11.96-43.37 16.21v20.48c0 2.95-1.61 5.54-4 6.92-1.17.69-2.54 1.08-4 1.08s-2.83-.39-4-1.08c-2.39-1.38-4-3.97-4-6.92v-16.32c-22.05 5.09-44.5 7.64-66.99 7.64-1.06 0-2.12-.01-3.18-.02v54.7c.78.18 1.56.4 2.33.64 14.2 4.5 23.79 17.58 23.85 32.57 0 1.03-.19 2.01-.54 2.92-2.42-1.08-4.92-2.05-7.46-2.89-2.66-.89-5.38-1.64-8.16-2.26-.92-6.94-5.82-12.96-12.52-15.08-1.77-.57-3.64-.85-5.5-.85v-86.11c82.69 3.1 162.89-30.22 219.12-90.01z" fill="#017b4d"/><path d="m454.71 37.76c-3.84 10.46-8.22 20.63-13.1 30.48v61.96c0 2.95-1.61 5.54-4 6.92-1.17.69-2.54 1.08-4 1.08s-2.83-.39-4-1.08c-2.39-1.38-4-3.97-4-6.92v-33.6c-10.94 17.16-23.55 33.09-37.66 47.59v59.83c.78.18 1.56.4 2.33.64 14.2 4.5 23.79 17.58 23.85 32.57 0 .89-.14 1.74-.41 2.54-5.03-2.25-10.32-4.01-15.82-5.22-1.06-6.75-5.89-12.56-12.45-14.63-1.78-.57-3.64-.85-5.5-.85v-89.95c25.52-27.15 46.11-59.75 59.74-96.88 1.53-4.14 6.12-6.27 10.27-4.75 4.15 1.52 6.28 6.12 4.75 10.27z" fill="#00935c"/><path d="" fill="none"/></g></svg>