<svg id="Layer_1" enable-background="new 0 0 150 150" viewBox="0 0 150 150" xmlns="http://www.w3.org/2000/svg"><g><path d="m62.4 125h24.3v20h-24.3z" fill="#ac7164"/></g><path d="m42.3 56.6c4.2 1.8 10.3 4.2 12.5 4.2l-25.2 22.7c-1.7 1.5-1.1 4.2 1 5 5 1.7 12.3 4.1 13.3 4.1l-25 23.8c-1.7 1.6-.9 4.4 1.3 5 10.5 2.5 34.5 7.6 52.6 7.2h2.8v-113.8s-14.9 18.6-34.2 36.9c-1.5 1.5-1 4 .9 4.9z" fill="#00a53a"/><path d="m107.7 56.6c-4.2 1.8-10.3 4.2-12.5 4.2l25.2 22.7c1.7 1.5 1.1 4.2-1 5-5 1.7-12.3 4.1-13.3 4.1l25 23.8c1.7 1.6.9 4.4-1.3 5-10.5 2.5-34.5 7.6-52.6 7.2h-2.8v-113.8s14.9 18.6 34.2 36.9c1.5 1.5 1 4-.9 4.9z" fill="#40af36"/><g><path d="m75.4 5.7 3.4 7 7.7 1.1c1 .1 1.4 1.3.7 2l-5.6 5.4 1.3 7.6c.2 1-.9 1.7-1.7 1.3l-6.9-3.6-6.9 3.6c-.9.5-1.9-.3-1.7-1.3l1.3-7.6-5.6-5.4c-.7-.7-.3-1.9.7-2l7.7-1.1 3.4-7c.5-.9 1.8-.9 2.2 0z" fill="#f6c500"/></g><g><g><path d="m50.9 39c-.4.4-.7 1.1-.7 1.7s.2 1.2.7 1.7c.4.4 1.1.7 1.7.7s1.2-.2 1.7-.7c.4-.4.7-1.1.7-1.7s-.3-1.2-.7-1.7c-.9-.9-2.5-.9-3.4 0z" fill="#fff"/></g><g><path d="m75.7 54.4c-1.1-.7-2.6-.3-3.2.9-.7 1.1-.3 2.6.9 3.2.4.2.8.3 1.2.3.8 0 1.6-.4 2-1.2.6-1.1.3-2.5-.9-3.2z" fill="#f6c500"/></g><g><path d="m60.9 44.6c-1-.8-2.5-.6-3.3.4s-.6 2.5.4 3.3c.4.3.9.5 1.4.5.7 0 1.4-.3 1.9-.9.9-1 .7-2.5-.4-3.3z" fill="#f6c500"/></g><g><path d="m68.2 49.7c-1.1-.7-2.6-.4-3.3.7s-.4 2.6.7 3.3c.4.3.9.4 1.3.4.8 0 1.5-.4 2-1.1.7-1.1.4-2.5-.7-3.3z" fill="#fff"/></g><g><path d="m83.6 58.7c-1.2-.6-2.6-.1-3.2 1-.6 1.2-.1 2.6 1 3.2.3.2.7.3 1.1.3.9 0 1.7-.5 2.1-1.3.6-1.1.1-2.6-1-3.2z" fill="#fff"/></g><g><path d="m99.8 66.2c-1.2-.5-2.6.1-3.1 1.3s.1 2.6 1.3 3.1c.3.1.6.2.9.2.9 0 1.8-.6 2.2-1.5.5-1.2-.1-2.6-1.3-3.1z" fill="#fff"/></g><g><path d="m91.6 62.7c-1.2-.5-2.6 0-3.1 1.2s0 2.6 1.2 3.1c.3.1.7.2 1 .2.9 0 1.8-.5 2.2-1.4.4-1.2-.1-2.6-1.3-3.1z" fill="#f6c500"/></g><g><path d="m109 70c-.9-.9-2.5-.9-3.4 0-.4.4-.7 1.1-.7 1.7s.3 1.2.7 1.7c.4.4 1.1.7 1.7.7s1.2-.3 1.7-.7c.4-.4.7-1.1.7-1.7s-.3-1.3-.7-1.7z" fill="#f6c500"/></g></g><g><g><path d="m99 39c-.9-.9-2.5-.9-3.4 0-.4.4-.7 1-.7 1.7 0 .6.3 1.2.7 1.7.4.4 1.1.7 1.7.7s1.2-.2 1.7-.7c.4-.4.7-1.1.7-1.7 0-.7-.2-1.3-.7-1.7z" fill="#fff"/></g><g><path d="m50.2 66.2c-1.2.5-1.8 1.9-1.3 3.1.4.9 1.3 1.5 2.2 1.5.3 0 .6-.1.9-.2 1.2-.5 1.8-1.9 1.3-3.1s-1.9-1.8-3.1-1.3z" fill="#fff"/></g><g><path d="m58.4 62.7c-1.2.5-1.7 2-1.2 3.1.4.9 1.3 1.4 2.2 1.4.3 0 .7-.1 1-.2 1.2-.5 1.7-2 1.2-3.1-.6-1.3-2-1.8-3.2-1.2z" fill="#f6c500"/></g><g><path d="m89 44.6c-1 .8-1.2 2.3-.4 3.3.5.6 1.2.9 1.9.9.5 0 1-.2 1.4-.5 1-.8 1.2-2.3.4-3.3-.7-1-2.2-1.2-3.3-.4z" fill="#f6c500"/></g><g><path d="m66.4 58.7c-1.2.6-1.6 2-1 3.2.4.8 1.3 1.3 2.1 1.3.4 0 .7-.1 1.1-.3 1.2-.6 1.6-2 1-3.2-.6-1.1-2-1.6-3.2-1z" fill="#fff"/></g><g><path d="m81.8 49.7c-1.1.7-1.4 2.2-.7 3.3.5.7 1.2 1.1 2 1.1.5 0 .9-.1 1.3-.4 1.1-.7 1.4-2.2.7-3.3s-2.2-1.4-3.3-.7z" fill="#fff"/></g><g><path d="m41 70c-.4.4-.7 1.1-.7 1.7s.3 1.2.7 1.7c.4.4 1.1.7 1.7.7s1.2-.3 1.7-.7c.4-.4.7-1.1.7-1.7s-.3-1.2-.7-1.7c-.9-.9-2.5-.9-3.4 0z" fill="#f6c500"/></g></g><g><g><path d="m70.7 93.6c-1.2-.5-2.6 0-3.1 1.2s0 2.6 1.2 3.1c.3.1.6.2.9.2.9 0 1.8-.5 2.2-1.4.5-1.2 0-2.6-1.2-3.1z" fill="#fff"/></g><g><path d="m37.8 75.8c-1.1-.8-2.5-.5-3.3.5-.8 1.1-.5 2.5.5 3.3.4.3.9.5 1.4.5.7 0 1.4-.3 1.9-1 .8-1.1.6-2.6-.5-3.3z" fill="#fff"/></g><g><path d="m62.2 89.7c-1.2-.6-2.6-.1-3.2 1.1s-.1 2.6 1.1 3.2c.3.2.7.2 1 .2.9 0 1.7-.5 2.1-1.3.6-1.2.1-2.7-1-3.2z" fill="#f6c500"/></g><g><path d="m45.6 80.8c-1.1-.7-2.6-.3-3.2.8-.7 1.1-.3 2.6.8 3.3.4.2.8.3 1.2.3.8 0 1.6-.4 2-1.1.7-1.2.4-2.6-.8-3.3z" fill="#f6c500"/></g><g><path d="m53.8 85.4c-1.1-.6-2.6-.2-3.2 1-.6 1.1-.2 2.6 1 3.2.4.2.7.3 1.1.3.8 0 1.7-.5 2.1-1.3.6-1.1.1-2.6-1-3.2z" fill="#fff"/></g><g><path d="m88.2 100.3c-1.2-.4-2.6.2-3 1.5-.4 1.2.2 2.6 1.5 3 .2.1.5.1.8.1 1 0 1.9-.6 2.2-1.6.4-1.2-.3-2.5-1.5-3z" fill="#fff"/></g><g><path d="m124.5 109.7c-1.3-.2-2.5.6-2.7 1.9s.6 2.5 1.9 2.7h.4c1.1 0 2.1-.8 2.3-2 .3-1.2-.6-2.4-1.9-2.6z" fill="#fff"/></g><g><path d="m115.3 107.9c-1.3-.3-2.5.5-2.8 1.8s.5 2.5 1.8 2.8c.2 0 .3.1.5.1 1.1 0 2.1-.8 2.3-1.9.3-1.3-.5-2.6-1.8-2.8z" fill="#f6c500"/></g><g><path d="m79.4 97.1c-1.2-.5-2.6.1-3.1 1.4-.5 1.2.1 2.6 1.4 3.1.3.1.6.2.9.2.9 0 1.8-.6 2.2-1.5.4-1.3-.2-2.7-1.4-3.2z" fill="#f6c500"/></g><g><path d="m97.1 103.2c-1.3-.4-2.6.3-2.9 1.6-.4 1.3.3 2.6 1.6 2.9.2.1.5.1.7.1 1 0 2-.7 2.3-1.7.3-1.2-.4-2.5-1.7-2.9z" fill="#f6c500"/></g><g><path d="m106.2 105.7c-1.3-.3-2.6.4-2.9 1.7s.4 2.6 1.7 2.9c.2.1.4.1.6.1 1.1 0 2-.7 2.3-1.8.3-1.3-.5-2.6-1.7-2.9z" fill="#fff"/></g></g><g><g><path d="m114.3 76c-.9-.9-2.5-.9-3.3 0-.4.4-.7 1.1-.7 1.7s.3 1.2.7 1.7c.4.4 1.1.7 1.7.7s1.2-.2 1.7-.7c.4-.4.7-1.1.7-1.7-.1-.6-.4-1.2-.8-1.7z" fill="#fff"/></g><g><path d="m43.3 105.8c-1.3.3-2 1.6-1.7 2.9.3 1.1 1.2 1.8 2.3 1.8.2 0 .4 0 .6-.1 1.3-.3 2-1.6 1.7-2.9s-1.6-2.1-2.9-1.7z" fill="#f6c500"/></g><g><path d="m33.9 107.9c-1.3.3-2.1 1.5-1.9 2.8.2 1.1 1.2 1.9 2.3 1.9h.5c1.3-.3 2.1-1.5 1.8-2.8-.2-1.4-1.4-2.2-2.7-1.9z" fill="#fff"/></g><g><path d="m52.7 103.2c-1.3.4-2 1.7-1.6 2.9.3 1 1.2 1.7 2.3 1.7.2 0 .4 0 .7-.1 1.3-.4 2-1.7 1.6-2.9s-1.7-1.9-3-1.6z" fill="#fff"/></g><g><path d="m85.1 90.4c-1.2.6-1.7 2-1.1 3.2.4.9 1.3 1.4 2.1 1.4.3 0 .7-.1 1-.2 1.2-.6 1.7-2 1.1-3.2-.5-1.2-1.9-1.7-3.1-1.2z" fill="#f6c500"/></g><g><path d="m62 100.4c-1.2.4-1.9 1.8-1.5 3 .3 1 1.3 1.6 2.2 1.6.2 0 .5 0 .7-.1 1.2-.4 1.9-1.8 1.5-3-.4-1.3-1.7-2-2.9-1.5z" fill="#f6c500"/></g><g><path d="m102.2 81.3c-1.1.7-1.5 2.1-.8 3.3.4.7 1.2 1.2 2 1.2.4 0 .8-.1 1.2-.3 1.1-.7 1.5-2.1.8-3.2-.6-1.3-2.1-1.6-3.2-1z" fill="#f6c500"/></g><g><path d="m93.8 86.1c-1.2.6-1.6 2-1 3.2.4.8 1.2 1.3 2.1 1.3.4 0 .7-.1 1.1-.3 1.2-.6 1.6-2 1-3.2s-2.1-1.6-3.2-1z" fill="#fff"/></g><g><path d="m23.4 111c-.4.4-.7 1.1-.7 1.7s.3 1.2.7 1.7c.4.4 1.1.7 1.7.7s1.2-.3 1.7-.7c.4-.4.7-1.1.7-1.7s-.2-1.2-.7-1.7c-.9-.9-2.5-.9-3.4 0z" fill="#f6c500"/></g></g></svg>